<svg xmlns="http://www.w3.org/2000/svg" xmlns:xlink="http://www.w3.org/1999/xlink" width="500" zoomAndPan="magnify" viewBox="0 0 375 374.999991" height="500" preserveAspectRatio="xMidYMid meet" version="1.0"><defs><g/><clipPath id="01dbfa40e0"><path d="M 85.3125 20.515625 L 290.0625 20.515625 L 290.0625 268.765625 L 85.3125 268.765625 Z M 85.3125 20.515625 " clip-rule="nonzero"/></clipPath></defs><rect x="-37.5" width="450" fill="#ffffff" y="-37.499999" height="449.999989" fill-opacity="1"/><rect x="-37.5" width="450" fill="#ffffff" y="-37.499999" height="449.999989" fill-opacity="1"/><rect x="-37.5" width="450" fill="#ffffff" y="-37.499999" height="449.999989" fill-opacity="1"/><path fill="#145da0" d="M 134.226562 141.113281 C 134.226562 141.921875 133.566406 142.582031 132.757812 142.582031 L 119.972656 142.582031 C 119.160156 142.582031 118.503906 141.921875 118.503906 141.113281 L 118.503906 128.347656 C 118.503906 127.539062 119.160156 126.878906 119.972656 126.878906 L 132.757812 126.878906 C 133.566406 126.878906 134.226562 127.539062 134.226562 128.347656 Z M 132.757812 121.515625 L 119.972656 121.515625 C 116.199219 121.515625 113.132812 124.578125 113.132812 128.347656 L 113.132812 141.113281 C 113.132812 144.882812 116.199219 147.945312 119.972656 147.945312 L 132.757812 147.945312 C 136.527344 147.945312 139.597656 144.882812 139.597656 141.113281 L 139.597656 128.347656 C 139.597656 124.578125 136.527344 121.515625 132.757812 121.515625 " fill-opacity="1" fill-rule="nonzero"/><path fill="#145da0" d="M 152.320312 132.050781 C 150.839844 132.050781 149.636719 133.25 149.636719 134.730469 C 149.636719 136.210938 150.839844 137.414062 152.320312 137.414062 L 241.15625 137.414062 C 242.640625 137.414062 243.84375 136.210938 243.84375 134.730469 C 243.84375 133.25 242.640625 132.050781 241.15625 132.050781 L 152.320312 132.050781 " fill-opacity="1" fill-rule="nonzero"/><path fill="#145da0" d="M 134.226562 181.628906 C 134.226562 182.4375 133.566406 183.101562 132.757812 183.101562 L 119.972656 183.101562 C 119.160156 183.101562 118.503906 182.4375 118.503906 181.628906 L 118.503906 168.863281 C 118.503906 168.054688 119.160156 167.394531 119.972656 167.394531 L 132.757812 167.394531 C 133.566406 167.394531 134.226562 168.054688 134.226562 168.863281 Z M 132.757812 162.027344 L 119.972656 162.027344 C 116.199219 162.027344 113.132812 165.09375 113.132812 168.863281 L 113.132812 181.628906 C 113.132812 185.398438 116.199219 188.460938 119.972656 188.460938 L 132.757812 188.460938 C 136.527344 188.460938 139.597656 185.398438 139.597656 181.628906 L 139.597656 168.863281 C 139.597656 165.09375 136.527344 162.027344 132.757812 162.027344 " fill-opacity="1" fill-rule="nonzero"/><path fill="#145da0" d="M 241.15625 172.5625 L 152.320312 172.5625 C 150.839844 172.5625 149.636719 173.761719 149.636719 175.246094 C 149.636719 176.726562 150.839844 177.925781 152.320312 177.925781 L 241.15625 177.925781 C 242.640625 177.925781 243.84375 176.726562 243.84375 175.246094 C 243.84375 173.761719 242.640625 172.5625 241.15625 172.5625 " fill-opacity="1" fill-rule="nonzero"/><path fill="#145da0" d="M 134.226562 222.144531 C 134.226562 222.953125 133.566406 223.613281 132.757812 223.613281 L 119.972656 223.613281 C 119.160156 223.613281 118.503906 222.953125 118.503906 222.144531 L 118.503906 209.378906 C 118.503906 208.566406 119.160156 207.90625 119.972656 207.90625 L 132.757812 207.90625 C 133.566406 207.90625 134.226562 208.566406 134.226562 209.378906 Z M 132.757812 202.542969 L 119.972656 202.542969 C 116.199219 202.542969 113.132812 205.609375 113.132812 209.378906 L 113.132812 222.144531 C 113.132812 225.914062 116.199219 228.976562 119.972656 228.976562 L 132.757812 228.976562 C 136.527344 228.976562 139.597656 225.914062 139.597656 222.144531 L 139.597656 209.378906 C 139.597656 205.609375 136.527344 202.542969 132.757812 202.542969 " fill-opacity="1" fill-rule="nonzero"/><path fill="#145da0" d="M 241.15625 213.074219 L 152.320312 213.074219 C 150.839844 213.074219 149.636719 214.277344 149.636719 215.757812 C 149.636719 217.238281 150.839844 218.441406 152.320312 218.441406 L 241.15625 218.441406 C 242.640625 218.441406 243.84375 217.238281 243.84375 215.757812 C 243.84375 214.277344 242.640625 213.074219 241.15625 213.074219 " fill-opacity="1" fill-rule="nonzero"/><g clip-path="url(#01dbfa40e0)"><path fill="#145da0" d="M 246.929688 98.601562 C 245.398438 100.878906 242.964844 102.394531 240.246094 102.773438 C 239.804688 102.835938 239.363281 102.863281 238.921875 102.863281 C 236.648438 102.863281 234.433594 102.066406 232.679688 100.578125 L 207.589844 79.300781 C 203.53125 75.855469 203.035156 69.78125 206.476562 65.726562 C 209.929688 61.679688 216.007812 61.175781 220.070312 64.617188 L 236.929688 78.917969 L 259.496094 45.316406 C 262.460938 40.902344 268.449219 39.722656 272.875 42.683594 C 277.296875 45.648438 278.476562 51.628906 275.511719 56.042969 Z M 260.917969 240.453125 C 260.917969 250.082031 253.074219 257.914062 243.433594 257.914062 L 113.546875 257.914062 C 103.90625 257.914062 96.0625 250.082031 96.0625 240.453125 L 96.0625 111.660156 L 98.285156 109.4375 L 123.667969 109.4375 C 136.292969 109.4375 146.523438 99.21875 146.523438 86.605469 L 146.523438 61.257812 L 148.75 59.035156 L 193.394531 59.035156 C 192.65625 62.40625 192.242188 65.898438 192.242188 69.488281 C 192.242188 96.472656 214.144531 118.34375 241.15625 118.34375 C 248.195312 118.34375 254.871094 116.832031 260.917969 114.160156 Z M 290.070312 69.488281 C 290.070312 42.507812 268.175781 20.636719 241.15625 20.636719 C 221.753906 20.636719 205.035156 31.949219 197.132812 48.304688 L 146.523438 48.304688 C 145.101562 48.304688 143.734375 48.871094 142.726562 49.878906 L 86.890625 105.644531 C 85.882812 106.652344 85.316406 108.015625 85.316406 109.4375 L 85.316406 240.453125 C 85.316406 255.996094 97.980469 268.644531 113.546875 268.644531 L 243.433594 268.644531 C 258.996094 268.644531 271.65625 255.996094 271.65625 240.453125 L 271.65625 107.648438 C 282.871094 98.699219 290.070312 84.945312 290.070312 69.488281 " fill-opacity="1" fill-rule="nonzero"/></g><g fill="#145da0" fill-opacity="1"><g transform="translate(46.834725, 326.601342)"><g><path d="M 14.578125 0.40625 C 13.410156 0.40625 12.519531 0.0859375 11.90625 -0.546875 C 11.300781 -1.191406 11 -2.097656 11 -3.265625 L 11 -26.546875 L 2.859375 -26.546875 C 1.898438 -26.546875 1.160156 -26.804688 0.640625 -27.328125 C 0.117188 -27.847656 -0.140625 -28.566406 -0.140625 -29.484375 C -0.140625 -30.429688 0.117188 -31.160156 0.640625 -31.671875 C 1.160156 -32.179688 1.898438 -32.4375 2.859375 -32.4375 L 26.265625 -32.4375 C 27.210938 -32.4375 27.945312 -32.179688 28.46875 -31.671875 C 28.988281 -31.160156 29.25 -30.429688 29.25 -29.484375 C 29.25 -28.566406 28.988281 -27.847656 28.46875 -27.328125 C 27.945312 -26.804688 27.210938 -26.546875 26.265625 -26.546875 L 18.125 -26.546875 L 18.125 -3.265625 C 18.125 -2.097656 17.820312 -1.191406 17.21875 -0.546875 C 16.625 0.0859375 15.742188 0.40625 14.578125 0.40625 Z M 14.578125 0.40625 "/></g></g></g><g fill="#145da0" fill-opacity="1"><g transform="translate(75.906915, 326.601342)"><g><path d="M 10.296875 0.5 C 8.640625 0.5 7.148438 0.179688 5.828125 -0.453125 C 4.515625 -1.097656 3.488281 -1.972656 2.75 -3.078125 C 2.019531 -4.179688 1.65625 -5.425781 1.65625 -6.8125 C 1.65625 -8.46875 2.082031 -9.773438 2.9375 -10.734375 C 3.800781 -11.703125 5.195312 -12.394531 7.125 -12.8125 C 9.0625 -13.226562 11.625 -13.4375 14.8125 -13.4375 L 17.25 -13.4375 L 17.25 -9.84375 L 14.859375 -9.84375 C 13.296875 -9.84375 12.03125 -9.757812 11.0625 -9.59375 C 10.09375 -9.425781 9.398438 -9.140625 8.984375 -8.734375 C 8.578125 -8.335938 8.375 -7.785156 8.375 -7.078125 C 8.375 -6.222656 8.671875 -5.519531 9.265625 -4.96875 C 9.867188 -4.414062 10.738281 -4.140625 11.875 -4.140625 C 12.757812 -4.140625 13.546875 -4.34375 14.234375 -4.75 C 14.921875 -5.164062 15.460938 -5.734375 15.859375 -6.453125 C 16.265625 -7.179688 16.46875 -8.003906 16.46875 -8.921875 L 16.46875 -14.21875 C 16.46875 -15.5625 16.160156 -16.515625 15.546875 -17.078125 C 14.929688 -17.648438 13.890625 -17.9375 12.421875 -17.9375 C 11.585938 -17.9375 10.6875 -17.835938 9.71875 -17.640625 C 8.757812 -17.441406 7.695312 -17.113281 6.53125 -16.65625 C 5.851562 -16.34375 5.253906 -16.269531 4.734375 -16.4375 C 4.210938 -16.613281 3.8125 -16.921875 3.53125 -17.359375 C 3.257812 -17.804688 3.125 -18.296875 3.125 -18.828125 C 3.125 -19.367188 3.273438 -19.890625 3.578125 -20.390625 C 3.890625 -20.898438 4.398438 -21.28125 5.109375 -21.53125 C 6.546875 -22.113281 7.898438 -22.507812 9.171875 -22.71875 C 10.453125 -22.9375 11.628906 -23.046875 12.703125 -23.046875 C 15.054688 -23.046875 16.992188 -22.695312 18.515625 -22 C 20.035156 -21.3125 21.175781 -20.253906 21.9375 -18.828125 C 22.707031 -17.410156 23.09375 -15.582031 23.09375 -13.34375 L 23.09375 -3.125 C 23.09375 -1.988281 22.816406 -1.113281 22.265625 -0.5 C 21.710938 0.101562 20.914062 0.40625 19.875 0.40625 C 18.832031 0.40625 18.023438 0.101562 17.453125 -0.5 C 16.890625 -1.113281 16.609375 -1.988281 16.609375 -3.125 L 16.609375 -4.828125 L 16.921875 -4.546875 C 16.742188 -3.503906 16.351562 -2.609375 15.75 -1.859375 C 15.15625 -1.109375 14.394531 -0.523438 13.46875 -0.109375 C 12.550781 0.296875 11.492188 0.5 10.296875 0.5 Z M 10.296875 0.5 "/></g></g></g><g fill="#145da0" fill-opacity="1"><g transform="translate(101.529083, 326.601342)"><g><path d="M 11.3125 0.5 C 9.96875 0.5 8.582031 0.375 7.15625 0.125 C 5.726562 -0.113281 4.429688 -0.523438 3.265625 -1.109375 C 2.648438 -1.410156 2.210938 -1.796875 1.953125 -2.265625 C 1.691406 -2.742188 1.578125 -3.226562 1.609375 -3.71875 C 1.640625 -4.21875 1.800781 -4.664062 2.09375 -5.0625 C 2.382812 -5.457031 2.765625 -5.722656 3.234375 -5.859375 C 3.710938 -6.003906 4.242188 -5.953125 4.828125 -5.703125 C 6.085938 -5.179688 7.238281 -4.8125 8.28125 -4.59375 C 9.320312 -4.382812 10.347656 -4.28125 11.359375 -4.28125 C 12.679688 -4.28125 13.640625 -4.484375 14.234375 -4.890625 C 14.835938 -5.304688 15.140625 -5.851562 15.140625 -6.53125 C 15.140625 -7.144531 14.9375 -7.601562 14.53125 -7.90625 C 14.132812 -8.21875 13.550781 -8.4375 12.78125 -8.5625 L 7.953125 -9.4375 C 6.054688 -9.769531 4.59375 -10.460938 3.5625 -11.515625 C 2.539062 -12.578125 2.03125 -13.9375 2.03125 -15.59375 C 2.03125 -17.125 2.457031 -18.445312 3.3125 -19.5625 C 4.164062 -20.6875 5.351562 -21.546875 6.875 -22.140625 C 8.394531 -22.742188 10.117188 -23.046875 12.046875 -23.046875 C 13.429688 -23.046875 14.707031 -22.921875 15.875 -22.671875 C 17.039062 -22.429688 18.160156 -22.035156 19.234375 -21.484375 C 19.785156 -21.203125 20.175781 -20.832031 20.40625 -20.375 C 20.632812 -19.914062 20.707031 -19.441406 20.625 -18.953125 C 20.550781 -18.460938 20.359375 -18.015625 20.046875 -17.609375 C 19.742188 -17.210938 19.351562 -16.953125 18.875 -16.828125 C 18.40625 -16.710938 17.863281 -16.773438 17.25 -17.015625 C 16.269531 -17.472656 15.363281 -17.800781 14.53125 -18 C 13.707031 -18.207031 12.910156 -18.3125 12.140625 -18.3125 C 10.765625 -18.3125 9.769531 -18.085938 9.15625 -17.640625 C 8.539062 -17.191406 8.234375 -16.632812 8.234375 -15.96875 C 8.234375 -15.445312 8.410156 -15.007812 8.765625 -14.65625 C 9.117188 -14.300781 9.660156 -14.0625 10.390625 -13.9375 L 15.21875 -13.0625 C 17.21875 -12.726562 18.738281 -12.0625 19.78125 -11.0625 C 20.820312 -10.0625 21.34375 -8.703125 21.34375 -6.984375 C 21.34375 -4.660156 20.429688 -2.832031 18.609375 -1.5 C 16.785156 -0.164062 14.351562 0.5 11.3125 0.5 Z M 11.3125 0.5 "/></g></g></g><g fill="#145da0" fill-opacity="1"><g transform="translate(124.16123, 326.601342)"><g><path d="M 6.15625 0.40625 C 5.03125 0.40625 4.164062 0.101562 3.5625 -0.5 C 2.96875 -1.113281 2.671875 -1.988281 2.671875 -3.125 L 2.671875 -29.296875 C 2.671875 -30.460938 2.96875 -31.34375 3.5625 -31.9375 C 4.164062 -32.539062 5.03125 -32.84375 6.15625 -32.84375 C 7.257812 -32.84375 8.109375 -32.539062 8.703125 -31.9375 C 9.304688 -31.34375 9.609375 -30.460938 9.609375 -29.296875 L 9.609375 -13.25 L 9.703125 -13.25 L 16.375 -20.65625 C 17.050781 -21.414062 17.671875 -21.988281 18.234375 -22.375 C 18.804688 -22.757812 19.566406 -22.953125 20.515625 -22.953125 C 21.460938 -22.953125 22.1875 -22.707031 22.6875 -22.21875 C 23.195312 -21.726562 23.457031 -21.132812 23.46875 -20.4375 C 23.488281 -19.75 23.195312 -19.054688 22.59375 -18.359375 L 15.546875 -10.484375 L 15.546875 -13.109375 L 23.375 -4.09375 C 23.945312 -3.382812 24.195312 -2.675781 24.125 -1.96875 C 24.050781 -1.269531 23.738281 -0.695312 23.1875 -0.25 C 22.632812 0.1875 21.925781 0.40625 21.0625 0.40625 C 20.019531 0.40625 19.1875 0.207031 18.5625 -0.1875 C 17.9375 -0.582031 17.300781 -1.195312 16.65625 -2.03125 L 9.703125 -9.75 L 9.609375 -9.75 L 9.609375 -3.125 C 9.609375 -0.769531 8.457031 0.40625 6.15625 0.40625 Z M 6.15625 0.40625 "/></g></g></g><g fill="#145da0" fill-opacity="1"><g transform="translate(149.8294, 326.601342)"><g/></g></g><g fill="#145da0" fill-opacity="1"><g transform="translate(162.663485, 326.601342)"><g><path d="M 14.578125 0.40625 C 13.410156 0.40625 12.519531 0.0859375 11.90625 -0.546875 C 11.300781 -1.191406 11 -2.097656 11 -3.265625 L 11 -26.546875 L 2.859375 -26.546875 C 1.898438 -26.546875 1.160156 -26.804688 0.640625 -27.328125 C 0.117188 -27.847656 -0.140625 -28.566406 -0.140625 -29.484375 C -0.140625 -30.429688 0.117188 -31.160156 0.640625 -31.671875 C 1.160156 -32.179688 1.898438 -32.4375 2.859375 -32.4375 L 26.265625 -32.4375 C 27.210938 -32.4375 27.945312 -32.179688 28.46875 -31.671875 C 28.988281 -31.160156 29.25 -30.429688 29.25 -29.484375 C 29.25 -28.566406 28.988281 -27.847656 28.46875 -27.328125 C 27.945312 -26.804688 27.210938 -26.546875 26.265625 -26.546875 L 18.125 -26.546875 L 18.125 -3.265625 C 18.125 -2.097656 17.820312 -1.191406 17.21875 -0.546875 C 16.625 0.0859375 15.742188 0.40625 14.578125 0.40625 Z M 14.578125 0.40625 "/></g></g></g><g fill="#145da0" fill-opacity="1"><g transform="translate(191.735675, 326.601342)"><g><path d="M 6.25 0.40625 C 5.09375 0.40625 4.207031 0.101562 3.59375 -0.5 C 2.976562 -1.113281 2.671875 -1.988281 2.671875 -3.125 L 2.671875 -19.453125 C 2.671875 -20.585938 2.96875 -21.453125 3.5625 -22.046875 C 4.164062 -22.648438 5.003906 -22.953125 6.078125 -22.953125 C 7.179688 -22.953125 8.019531 -22.648438 8.59375 -22.046875 C 9.175781 -21.453125 9.46875 -20.585938 9.46875 -19.453125 L 9.46875 -17.0625 L 9.015625 -17.0625 C 9.378906 -18.90625 10.191406 -20.332031 11.453125 -21.34375 C 12.710938 -22.351562 14.335938 -22.921875 16.328125 -23.046875 C 17.097656 -23.109375 17.6875 -22.914062 18.09375 -22.46875 C 18.507812 -22.019531 18.734375 -21.289062 18.765625 -20.28125 C 18.828125 -19.332031 18.632812 -18.582031 18.1875 -18.03125 C 17.75 -17.476562 17.007812 -17.140625 15.96875 -17.015625 L 14.90625 -16.921875 C 13.15625 -16.773438 11.859375 -16.269531 11.015625 -15.40625 C 10.171875 -14.550781 9.75 -13.3125 9.75 -11.6875 L 9.75 -3.125 C 9.75 -1.988281 9.445312 -1.113281 8.84375 -0.5 C 8.25 0.101562 7.382812 0.40625 6.25 0.40625 Z M 6.25 0.40625 "/></g></g></g><g fill="#145da0" fill-opacity="1"><g transform="translate(210.687793, 326.601342)"><g><path d="M 10.296875 0.5 C 8.640625 0.5 7.148438 0.179688 5.828125 -0.453125 C 4.515625 -1.097656 3.488281 -1.972656 2.75 -3.078125 C 2.019531 -4.179688 1.65625 -5.425781 1.65625 -6.8125 C 1.65625 -8.46875 2.082031 -9.773438 2.9375 -10.734375 C 3.800781 -11.703125 5.195312 -12.394531 7.125 -12.8125 C 9.0625 -13.226562 11.625 -13.4375 14.8125 -13.4375 L 17.25 -13.4375 L 17.25 -9.84375 L 14.859375 -9.84375 C 13.296875 -9.84375 12.03125 -9.757812 11.0625 -9.59375 C 10.09375 -9.425781 9.398438 -9.140625 8.984375 -8.734375 C 8.578125 -8.335938 8.375 -7.785156 8.375 -7.078125 C 8.375 -6.222656 8.671875 -5.519531 9.265625 -4.96875 C 9.867188 -4.414062 10.738281 -4.140625 11.875 -4.140625 C 12.757812 -4.140625 13.546875 -4.34375 14.234375 -4.75 C 14.921875 -5.164062 15.460938 -5.734375 15.859375 -6.453125 C 16.265625 -7.179688 16.46875 -8.003906 16.46875 -8.921875 L 16.46875 -14.21875 C 16.46875 -15.5625 16.160156 -16.515625 15.546875 -17.078125 C 14.929688 -17.648438 13.890625 -17.9375 12.421875 -17.9375 C 11.585938 -17.9375 10.6875 -17.835938 9.71875 -17.640625 C 8.757812 -17.441406 7.695312 -17.113281 6.53125 -16.65625 C 5.851562 -16.34375 5.253906 -16.269531 4.734375 -16.4375 C 4.210938 -16.613281 3.8125 -16.921875 3.53125 -17.359375 C 3.257812 -17.804688 3.125 -18.296875 3.125 -18.828125 C 3.125 -19.367188 3.273438 -19.890625 3.578125 -20.390625 C 3.890625 -20.898438 4.398438 -21.28125 5.109375 -21.53125 C 6.546875 -22.113281 7.898438 -22.507812 9.171875 -22.71875 C 10.453125 -22.9375 11.628906 -23.046875 12.703125 -23.046875 C 15.054688 -23.046875 16.992188 -22.695312 18.515625 -22 C 20.035156 -21.3125 21.175781 -20.253906 21.9375 -18.828125 C 22.707031 -17.410156 23.09375 -15.582031 23.09375 -13.34375 L 23.09375 -3.125 C 23.09375 -1.988281 22.816406 -1.113281 22.265625 -0.5 C 21.710938 0.101562 20.914062 0.40625 19.875 0.40625 C 18.832031 0.40625 18.023438 0.101562 17.453125 -0.5 C 16.890625 -1.113281 16.609375 -1.988281 16.609375 -3.125 L 16.609375 -4.828125 L 16.921875 -4.546875 C 16.742188 -3.503906 16.351562 -2.609375 15.75 -1.859375 C 15.15625 -1.109375 14.394531 -0.523438 13.46875 -0.109375 C 12.550781 0.296875 11.492188 0.5 10.296875 0.5 Z M 10.296875 0.5 "/></g></g></g><g fill="#145da0" fill-opacity="1"><g transform="translate(236.309961, 326.601342)"><g><path d="M 13.65625 0.5 C 11.207031 0.5 9.070312 0.0195312 7.25 -0.9375 C 5.425781 -1.90625 4.019531 -3.28125 3.03125 -5.0625 C 2.050781 -6.84375 1.5625 -8.941406 1.5625 -11.359375 C 1.5625 -13.171875 1.835938 -14.796875 2.390625 -16.234375 C 2.941406 -17.679688 3.742188 -18.910156 4.796875 -19.921875 C 5.859375 -20.929688 7.140625 -21.703125 8.640625 -22.234375 C 10.148438 -22.773438 11.820312 -23.046875 13.65625 -23.046875 C 14.613281 -23.046875 15.628906 -22.929688 16.703125 -22.703125 C 17.773438 -22.472656 18.832031 -22.082031 19.875 -21.53125 C 20.488281 -21.25 20.910156 -20.851562 21.140625 -20.34375 C 21.367188 -19.84375 21.453125 -19.320312 21.390625 -18.78125 C 21.328125 -18.25 21.132812 -17.773438 20.8125 -17.359375 C 20.488281 -16.953125 20.082031 -16.675781 19.59375 -16.53125 C 19.101562 -16.394531 18.550781 -16.484375 17.9375 -16.796875 C 17.351562 -17.128906 16.75 -17.367188 16.125 -17.515625 C 15.5 -17.671875 14.910156 -17.75 14.359375 -17.75 C 13.429688 -17.75 12.613281 -17.601562 11.90625 -17.3125 C 11.207031 -17.019531 10.617188 -16.601562 10.140625 -16.0625 C 9.671875 -15.53125 9.300781 -14.863281 9.03125 -14.0625 C 8.769531 -13.269531 8.640625 -12.351562 8.640625 -11.3125 C 8.640625 -9.289062 9.140625 -7.703125 10.140625 -6.546875 C 11.140625 -5.398438 12.546875 -4.828125 14.359375 -4.828125 C 14.910156 -4.828125 15.488281 -4.894531 16.09375 -5.03125 C 16.707031 -5.175781 17.320312 -5.414062 17.9375 -5.75 C 18.550781 -6.050781 19.101562 -6.125 19.59375 -5.96875 C 20.082031 -5.820312 20.472656 -5.539062 20.765625 -5.125 C 21.054688 -4.71875 21.222656 -4.242188 21.265625 -3.703125 C 21.316406 -3.160156 21.226562 -2.632812 21 -2.125 C 20.769531 -1.625 20.363281 -1.238281 19.78125 -0.96875 C 18.738281 -0.445312 17.695312 -0.0703125 16.65625 0.15625 C 15.613281 0.382812 14.613281 0.5 13.65625 0.5 Z M 13.65625 0.5 "/></g></g></g><g fill="#145da0" fill-opacity="1"><g transform="translate(258.2981, 326.601342)"><g><path d="M 6.15625 0.40625 C 5.03125 0.40625 4.164062 0.101562 3.5625 -0.5 C 2.96875 -1.113281 2.671875 -1.988281 2.671875 -3.125 L 2.671875 -29.296875 C 2.671875 -30.460938 2.96875 -31.34375 3.5625 -31.9375 C 4.164062 -32.539062 5.03125 -32.84375 6.15625 -32.84375 C 7.257812 -32.84375 8.109375 -32.539062 8.703125 -31.9375 C 9.304688 -31.34375 9.609375 -30.460938 9.609375 -29.296875 L 9.609375 -13.25 L 9.703125 -13.25 L 16.375 -20.65625 C 17.050781 -21.414062 17.671875 -21.988281 18.234375 -22.375 C 18.804688 -22.757812 19.566406 -22.953125 20.515625 -22.953125 C 21.460938 -22.953125 22.1875 -22.707031 22.6875 -22.21875 C 23.195312 -21.726562 23.457031 -21.132812 23.46875 -20.4375 C 23.488281 -19.75 23.195312 -19.054688 22.59375 -18.359375 L 15.546875 -10.484375 L 15.546875 -13.109375 L 23.375 -4.09375 C 23.945312 -3.382812 24.195312 -2.675781 24.125 -1.96875 C 24.050781 -1.269531 23.738281 -0.695312 23.1875 -0.25 C 22.632812 0.1875 21.925781 0.40625 21.0625 0.40625 C 20.019531 0.40625 19.1875 0.207031 18.5625 -0.1875 C 17.9375 -0.582031 17.300781 -1.195312 16.65625 -2.03125 L 9.703125 -9.75 L 9.609375 -9.75 L 9.609375 -3.125 C 9.609375 -0.769531 8.457031 0.40625 6.15625 0.40625 Z M 6.15625 0.40625 "/></g></g></g><g fill="#145da0" fill-opacity="1"><g transform="translate(283.966283, 326.601342)"><g><path d="M 14.390625 0.5 C 11.722656 0.5 9.429688 0.0195312 7.515625 -0.9375 C 5.597656 -1.90625 4.125 -3.269531 3.09375 -5.03125 C 2.070312 -6.800781 1.5625 -8.878906 1.5625 -11.265625 C 1.5625 -13.597656 2.050781 -15.644531 3.03125 -17.40625 C 4.019531 -19.175781 5.394531 -20.554688 7.15625 -21.546875 C 8.914062 -22.546875 10.914062 -23.046875 13.15625 -23.046875 C 14.78125 -23.046875 16.25 -22.773438 17.5625 -22.234375 C 18.882812 -21.703125 20.019531 -20.9375 20.96875 -19.9375 C 21.925781 -18.945312 22.648438 -17.738281 23.140625 -16.3125 C 23.628906 -14.882812 23.875 -13.296875 23.875 -11.546875 C 23.875 -10.960938 23.6875 -10.523438 23.3125 -10.234375 C 22.945312 -9.941406 22.414062 -9.796875 21.71875 -9.796875 L 7.265625 -9.796875 L 7.265625 -13.390625 L 18.859375 -13.390625 L 18.125 -12.734375 C 18.125 -13.992188 17.9375 -15.046875 17.5625 -15.890625 C 17.195312 -16.734375 16.671875 -17.367188 15.984375 -17.796875 C 15.296875 -18.234375 14.445312 -18.453125 13.4375 -18.453125 C 12.300781 -18.453125 11.332031 -18.1875 10.53125 -17.65625 C 9.738281 -17.132812 9.125 -16.382812 8.6875 -15.40625 C 8.257812 -14.425781 8.046875 -13.25 8.046875 -11.875 L 8.046875 -11.5 C 8.046875 -9.164062 8.585938 -7.445312 9.671875 -6.34375 C 10.765625 -5.238281 12.382812 -4.6875 14.53125 -4.6875 C 15.269531 -4.6875 16.113281 -4.78125 17.0625 -4.96875 C 18.007812 -5.15625 18.898438 -5.445312 19.734375 -5.84375 C 20.441406 -6.175781 21.070312 -6.289062 21.625 -6.1875 C 22.175781 -6.082031 22.601562 -5.828125 22.90625 -5.421875 C 23.21875 -5.023438 23.394531 -4.566406 23.4375 -4.046875 C 23.476562 -3.523438 23.359375 -3.007812 23.078125 -2.5 C 22.804688 -2 22.351562 -1.578125 21.71875 -1.234375 C 20.664062 -0.660156 19.488281 -0.226562 18.1875 0.0625 C 16.882812 0.351562 15.617188 0.5 14.390625 0.5 Z M 14.390625 0.5 "/></g></g></g><g fill="#145da0" fill-opacity="1"><g transform="translate(309.220452, 326.601342)"><g><path d="M 6.25 0.40625 C 5.09375 0.40625 4.207031 0.101562 3.59375 -0.5 C 2.976562 -1.113281 2.671875 -1.988281 2.671875 -3.125 L 2.671875 -19.453125 C 2.671875 -20.585938 2.96875 -21.453125 3.5625 -22.046875 C 4.164062 -22.648438 5.003906 -22.953125 6.078125 -22.953125 C 7.179688 -22.953125 8.019531 -22.648438 8.59375 -22.046875 C 9.175781 -21.453125 9.46875 -20.585938 9.46875 -19.453125 L 9.46875 -17.0625 L 9.015625 -17.0625 C 9.378906 -18.90625 10.191406 -20.332031 11.453125 -21.34375 C 12.710938 -22.351562 14.335938 -22.921875 16.328125 -23.046875 C 17.097656 -23.109375 17.6875 -22.914062 18.09375 -22.46875 C 18.507812 -22.019531 18.734375 -21.289062 18.765625 -20.28125 C 18.828125 -19.332031 18.632812 -18.582031 18.1875 -18.03125 C 17.75 -17.476562 17.007812 -17.140625 15.96875 -17.015625 L 14.90625 -16.921875 C 13.15625 -16.773438 11.859375 -16.269531 11.015625 -15.40625 C 10.171875 -14.550781 9.75 -13.3125 9.75 -11.6875 L 9.75 -3.125 C 9.75 -1.988281 9.445312 -1.113281 8.84375 -0.5 C 8.25 0.101562 7.382812 0.40625 6.25 0.40625 Z M 6.25 0.40625 "/></g></g></g></svg>